<svg xmlns="http://www.w3.org/2000/svg" xmlns:xlink="http://www.w3.org/1999/xlink" width="367.441" height="122.029" viewBox="0 0 367.441 122.029">
  <defs>
    <clipPath id="clip-path">
      <rect id="Rectangle_6" data-name="Rectangle 6" width="7.218" height="44.024" transform="translate(359.698 565.344)" fill="none"/>
    </clipPath>
  </defs>
  <g id="Group_9" data-name="Group 9" transform="translate(-753 -742)">
    <path id="Path_10" data-name="Path 10" d="M293.341,631.822v7.35a3.6,3.6,0,0,1-3.875,4h-9.075q-7.95,0-7.95-7.075v-4.275h2.775V636.1a3.861,3.861,0,0,0,1.425,3.425,6.026,6.026,0,0,0,3.425.8h6.85a5.006,5.006,0,0,0,2.625-.475,2.874,2.874,0,0,0,1.05-2.6v-5.425Zm-6.75-.025h-2.725v-2.775h2.725Zm-4.75,0h-2.725v-2.775h2.725Zm21.475,11.375h-3.275a3.781,3.781,0,0,1-3.1-1.3,4.86,4.86,0,0,1-1-3.25V627.047h2.775V637.5a2.833,2.833,0,0,0,.8,2.4,3.907,3.907,0,0,0,2.15.425h1.65Zm15.8-1.75v1.75H302.391v-2.85h13.725a6.078,6.078,0,0,0-1.35-3.975,5.305,5.305,0,0,0-4.325-1.9h-5.775l4.925-7.4h3.325l-3.375,4.775h1.225a8.273,8.273,0,0,1,4.8,1.375,9.1,9.1,0,0,1,3.55,8.225m12.425,1.75h-4.475c-.425,2.675-2.7,4.15-6.1,4.15v-2.4a3.09,3.09,0,0,0,3.475-3.55v-9.55h2.8v8.5h4.3Zm-1.1,0v-2.85h2.55c1.425,0,2.125-.975,2.125-2.95v-5.55h2.825v5.45a6.113,6.113,0,0,1-.45,2.9v.15h2.6c1.425,0,2.125-.925,2.125-2.775v-5.725h2.825v5.45a5.129,5.129,0,0,1-.575,3.05h2.725c1.425,0,2.125-.925,2.125-2.75v-5.75h2.825v5.4a7.162,7.162,0,0,1-.625,3.1h4.275v2.85Zm11.8-20.375h2.75v2.8h-2.75Zm2.35,3.95h2.725v2.775h-2.725Zm-4.725,0h2.725v2.775h-2.725Zm22.225,11.9c0,3.025-1.4,4.525-4.2,4.525h-2.95v-2.85h2.375a1.775,1.775,0,0,0,1.775-.825,5.471,5.471,0,0,0,.2-1.8v-10.65h2.8Zm5.35,4.525h-2.775v-16.15h2.775Z" transform="translate(753 216)" fill="#1275b0"/>
    <path id="Path_11" data-name="Path 11" d="M159.806,641.271a5.534,5.534,0,0,1-1.551.72,6.86,6.86,0,0,1-1.943.245,5.552,5.552,0,0,1-2.907-.733,6.214,6.214,0,0,1-2.016-1.955,8.755,8.755,0,0,1-1.172-2.748,13.915,13.915,0,0,1,0-6.451,8.764,8.764,0,0,1,1.172-2.773,6.211,6.211,0,0,1,2.016-1.954,5.543,5.543,0,0,1,2.907-.733,7.157,7.157,0,0,1,1.943.244,5.281,5.281,0,0,1,1.551.709l-.733,1.905a4.189,4.189,0,0,0-.977-.452,4.019,4.019,0,0,0-1.246-.183,2.854,2.854,0,0,0-1.759.55,4.03,4.03,0,0,0-1.185,1.454,7.571,7.571,0,0,0-.66,2.064,13.35,13.35,0,0,0-.207,2.37,12.775,12.775,0,0,0,.207,2.309,7.158,7.158,0,0,0,.672,2.028,4.24,4.24,0,0,0,1.185,1.441,2.759,2.759,0,0,0,1.723.55,4.042,4.042,0,0,0,1.221-.183,4.167,4.167,0,0,0,1-.452Zm12.558-5.889a10.4,10.4,0,0,1-.342,2.749,6.263,6.263,0,0,1-1.038,2.174,4.819,4.819,0,0,1-1.747,1.43,6.074,6.074,0,0,1-4.886,0,4.811,4.811,0,0,1-1.747-1.43,6.248,6.248,0,0,1-1.039-2.174,10.487,10.487,0,0,1-.342-2.749,10.313,10.313,0,0,1,.342-2.736,6.288,6.288,0,0,1,1.039-2.15,4.805,4.805,0,0,1,1.747-1.441,6.074,6.074,0,0,1,4.886,0,4.816,4.816,0,0,1,1.747,1.429,6.27,6.27,0,0,1,1.038,2.162,10.314,10.314,0,0,1,.342,2.736m-2.98-.048a13.277,13.277,0,0,0-.135-1.931,5.716,5.716,0,0,0-.44-1.563,2.851,2.851,0,0,0-.794-1.051,1.9,1.9,0,0,0-1.221-.391,1.936,1.936,0,0,0-1.222.379,2.723,2.723,0,0,0-.794,1.051,5.907,5.907,0,0,0-.44,1.575,13.973,13.973,0,0,0,0,3.861,5.925,5.925,0,0,0,.44,1.576,2.72,2.72,0,0,0,.794,1.05,2.158,2.158,0,0,0,2.443,0,2.71,2.71,0,0,0,.794-1.05,5.925,5.925,0,0,0,.44-1.576,13.263,13.263,0,0,0,.135-1.93m11.409-4.569a3.3,3.3,0,0,0-1.344-.269,4.015,4.015,0,0,0-.781.073,2.947,2.947,0,0,0-.636.2v11.214h-2.98V629.494a9.562,9.562,0,0,1,2.1-.672,13.892,13.892,0,0,1,2.834-.256q.416,0,.818.024t.6.049Zm13.291,4.471a9.506,9.506,0,0,1-.415,2.907,6.2,6.2,0,0,1-1.185,2.2,5.207,5.207,0,0,1-1.832,1.368,5.7,5.7,0,0,1-2.358.489,6.9,6.9,0,0,1-1.112-.086,4.99,4.99,0,0,1-.867-.232v5.351h-2.956V629.494a8.5,8.5,0,0,1,2.137-.733,12.322,12.322,0,0,1,2.407-.244,5.887,5.887,0,0,1,4.569,1.759,7.035,7.035,0,0,1,1.612,4.96m-2.956.073a7.443,7.443,0,0,0-.733-3.64,2.666,2.666,0,0,0-2.529-1.32,5.462,5.462,0,0,0-.818.062,2.634,2.634,0,0,0-.733.207v9.5a2.972,2.972,0,0,0,.586.159,4.189,4.189,0,0,0,.733.061,2.947,2.947,0,0,0,2.627-1.295,6.716,6.716,0,0,0,.867-3.738m16.3.073a10.487,10.487,0,0,1-.342,2.749,6.264,6.264,0,0,1-1.038,2.174,4.819,4.819,0,0,1-1.747,1.43,6.076,6.076,0,0,1-4.887,0,4.819,4.819,0,0,1-1.747-1.43,6.263,6.263,0,0,1-1.038-2.174,10.487,10.487,0,0,1-.342-2.749,10.314,10.314,0,0,1,.342-2.736,6.288,6.288,0,0,1,1.038-2.162,4.816,4.816,0,0,1,1.747-1.429,6.076,6.076,0,0,1,4.887,0,4.817,4.817,0,0,1,1.747,1.429,6.27,6.27,0,0,1,1.038,2.162,10.314,10.314,0,0,1,.342,2.736m-2.981-.048a13.138,13.138,0,0,0-.134-1.931,5.751,5.751,0,0,0-.44-1.563,2.851,2.851,0,0,0-.794-1.051,1.9,1.9,0,0,0-1.221-.391,1.934,1.934,0,0,0-1.222.379,2.723,2.723,0,0,0-.794,1.051,5.907,5.907,0,0,0-.44,1.575,13.974,13.974,0,0,0,0,3.861,5.925,5.925,0,0,0,.44,1.576,2.72,2.72,0,0,0,.794,1.05,2.158,2.158,0,0,0,2.443,0,2.71,2.71,0,0,0,.794-1.05,5.925,5.925,0,0,0,.44-1.576,13.124,13.124,0,0,0,.134-1.93m11.41-4.569a3.3,3.3,0,0,0-1.344-.269,4.032,4.032,0,0,0-.782.073,2.956,2.956,0,0,0-.635.2v11.214h-2.98V629.494a9.562,9.562,0,0,1,2.1-.672,13.892,13.892,0,0,1,2.834-.256q.416,0,.818.024t.6.049Zm11.874,10.53a8.9,8.9,0,0,1-2.052.684,12.673,12.673,0,0,1-2.712.269,6.625,6.625,0,0,1-3.995-1.026,4.037,4.037,0,0,1-.818-5.094,4.468,4.468,0,0,1,1.551-1.4,8.533,8.533,0,0,1,2.333-.868,22.868,22.868,0,0,1,2.908-.452V632.7a2.079,2.079,0,0,0-.636-1.7,2.893,2.893,0,0,0-1.881-.525,6.95,6.95,0,0,0-1.8.244,9.207,9.207,0,0,0-1.624.586l-.66-1.759a12.652,12.652,0,0,1,2.1-.708,9.617,9.617,0,0,1,2.346-.293,5.522,5.522,0,0,1,3.6,1.087,4.205,4.205,0,0,1,1.332,3.457Zm-2.785-6.45a8.226,8.226,0,0,0-3.384.965,2.468,2.468,0,0,0-1.161,2.26,2.386,2.386,0,0,0,.7,1.857,2.97,2.97,0,0,0,2.064.635,4.928,4.928,0,0,0,.977-.1,2.934,2.934,0,0,0,.795-.268Zm11.654,7.012a3.674,3.674,0,0,1-1.613.293,3.471,3.471,0,0,1-2.59-.941,3.684,3.684,0,0,1-.928-2.7v-7.818H230V628.81h1.466V625.9l2.981-.831v3.738h2.15v1.882h-2.15v7.818a1.75,1.75,0,0,0,.354,1.172,1.318,1.318,0,0,0,1.063.416,2.314,2.314,0,0,0,.733-.122Zm4.715-5.375a4.346,4.346,0,0,0,1.112,2.7,3.432,3.432,0,0,0,2.577.965,7.489,7.489,0,0,0,1.8-.22,5.8,5.8,0,0,0,1.466-.538l.709,1.906a8.48,8.48,0,0,1-1.967.684,10.657,10.657,0,0,1-2.407.269,6.531,6.531,0,0,1-2.638-.489,5.427,5.427,0,0,1-1.955-1.4,6,6,0,0,1-1.2-2.174,9.253,9.253,0,0,1-.4-2.81,9.642,9.642,0,0,1,.391-2.809,6.1,6.1,0,0,1,1.111-2.15,5.012,5.012,0,0,1,1.784-1.381,5.619,5.619,0,0,1,2.394-.488,4.918,4.918,0,0,1,3.97,1.624,7.12,7.12,0,0,1,1.369,4.728v.391Zm5.253-2.37a5.486,5.486,0,0,0-.635-2.8,2.128,2.128,0,0,0-1.955-.978,2.309,2.309,0,0,0-2.125,1.21,6.206,6.206,0,0,0-.709,3.176v.269Z" transform="translate(753 216)" fill="#1275b0"/>
    <path id="Path_12" data-name="Path 12" d="M201.731,576.136a3.714,3.714,0,1,0-3.706-3.721v.013a3.713,3.713,0,0,0,3.706,3.708" transform="translate(753 216)" fill="#1275b0"/>
    <rect id="Rectangle_3" data-name="Rectangle 3" width="7.218" height="44.024" transform="translate(1112.697 781.344)" fill="#1275b0"/>
    <rect id="Rectangle_4" data-name="Rectangle 4" width="7.218" height="44.024" transform="translate(1112.697 781.344)" fill="#1275b0"/>
    <g id="Group_7" data-name="Group 7" transform="translate(753 216)" clip-path="url(#clip-path)">
      <path id="Path_13" data-name="Path 13" d="M366.913,600.878V565.344a8.868,8.868,0,0,0-4.48,1.327c-3.005,1.929-2.736,5.922-2.736,7.168v35.534a8.893,8.893,0,0,0,4.48-1.337c3-1.924,2.733-5.914,2.733-7.158" fill="#1275b0"/>
    </g>
    <path id="Path_14" data-name="Path 14" d="M218.523,618.972h0a7.078,7.078,0,0,1-6.368-3.045h.023c3.658,0,8.521-.856,8.521-8.252v-19.97a7.628,7.628,0,0,1,2.736-6.878,8.845,8.845,0,0,1,4.477-1.325l.015,24.874h11.64V591.012a7.617,7.617,0,0,1,2.749-6.886,8.837,8.837,0,0,1,4.482-1.33v10.138a17.486,17.486,0,0,1,5.909-7.48,27.451,27.451,0,0,1,8.163-4.021,44.017,44.017,0,0,1,12.3-1.936h.495c1.982,0,8.719.393,12.16,5.436,2.937,4.315,2.721,10.841-.639,19.432h10.891c3.779,0,4.29-3.528,4.29-6.98v-2.51a10.466,10.466,0,0,1,2.269-6.815,12.753,12.753,0,0,1,5.167-3.627,26.307,26.307,0,0,1,9.244-1.7h.67a25.524,25.524,0,0,1,9.2,1.744,12.762,12.762,0,0,1,5.163,3.713,10.951,10.951,0,0,1,2.269,7v3.267c.193,4.109,1.462,5.863,4.246,5.863h3.132c1.386-.061,4.607-.863,4.607-6.944V573.547a7.614,7.614,0,0,1,2.726-6.876,8.809,8.809,0,0,1,4.467-1.327v33a11.467,11.467,0,0,1-2.838,7.635,12.01,12.01,0,0,1-9.008,3.327H338.59a12.148,12.148,0,0,1-7.812-2.406c-3.069,3.99-12.262,4.1-13.3,4.1h-.186c-1.043,0-10.282-.117-13.371-4.137a12.033,12.033,0,0,1-7.614,2.431H227.927a9.461,9.461,0,0,1-3.046,7.4,9.639,9.639,0,0,1-6.358,2.276m98.864-11.221h.3a8.8,8.8,0,0,0,9.442-8.1,9.037,9.037,0,0,0,.018-1.041v-3.005a9,9,0,0,0-9.536-9.592h-.457a9.012,9.012,0,0,0-9.563,9.594v2.077a9.3,9.3,0,0,0,4.177,8.629,10.934,10.934,0,0,0,5.346,1.434h.274Zm-45.961-23.838a34.157,34.157,0,0,0-14.295,3.046,18.326,18.326,0,0,0-7.241,6.129,19.773,19.773,0,0,0-3.112,11.272h29.965a39.971,39.971,0,0,0,2.447-6.452c.922-3.271,1.653-7.794-.1-10.764a7.175,7.175,0,0,0-6.374-3.2c-.2-.016-.642-.036-1.294-.036" transform="translate(753 216)" fill="#1275b0"/>
    <path id="Path_15" data-name="Path 15" d="M207.419,600.406h0c-.018,2.965-.609,3.952-3.279,3.952H160.227c-2.1-.094-4.612-1.632-4.612-6.99V582.791a8.87,8.87,0,0,0-4.474,1.33c-3.008,1.942-2.739,5.917-2.739,7.165v7.039s-.508,10.855,11.84,10.959h47.525c5.944,0,6.881-4.736,6.881-10.949V586.913s.431-8.03-12.211-7.416c0,0-15.392.213-15.59,12.157v5.3a3.192,3.192,0,0,0,3.047,3.328,3.29,3.29,0,0,0,.372-.005H201.6a3.046,3.046,0,0,0,3.373-2.68,3,3,0,0,0,.008-.607h-8.543a2.212,2.212,0,0,1-2.363-2.485v-2.68a8.742,8.742,0,0,1,8.445-9.029q.354-.012.71.005c4.48,0,4.2,2.742,4.2,2.742v14.863" transform="translate(753 216)" fill="#1275b0"/>
    <path id="Path_16" data-name="Path 16" d="M88.664,586.045v15.82c0,.109,0,.229.013.376v.345c0,5.353,1.992,5.8,3.86,5.8h2.247a9.55,9.55,0,0,0,5.771-1.875,10.313,10.313,0,0,0,3.62-8.031,13.522,13.522,0,0,0-2.668-10.216,6.87,6.87,0,0,0-4.485-2.213Z" transform="translate(753 216)" fill="#1275b0"/>
    <path id="Path_17" data-name="Path 17" d="M86.519,566.214v0c1.041,1.048,2.15,2.538,2.15,6.974v11.041H92.7a7.58,7.58,0,0,0,4.412-1.2,8.962,8.962,0,0,0,3.109-7.868,8.749,8.749,0,0,0-3.254-7.739,7.144,7.144,0,0,0-3.822-1.216Z" transform="translate(753 216)" fill="#1275b0"/>
    <path id="Path_18" data-name="Path 18" d="M61.021,526a61.015,61.015,0,1,0,61.007,61.385A61.016,61.016,0,0,0,61.021,526M10.114,590.626a18.981,18.981,0,0,1,17.668-20.208c.111-.013.116.048,0,.076a17.4,17.4,0,0,0,5.18,33.978A17.1,17.1,0,0,0,44.2,600.284c.091-.081.15-.04.063.071a18.777,18.777,0,0,1-15.363,7.98,18.981,18.981,0,0,1-18.787-17.709M43.99,612.719l3.508,3.53a6.114,6.114,0,0,0,7.7.079l.01-.01c.1-.087.147.005.068.142a19.32,19.32,0,0,1-2.048,2.594,9.79,9.79,0,0,1-13.691-.119c-.195-.2-.375-.4-.558-.6-.932-.977-1.861-1.954-2.812-2.916a25.8,25.8,0,0,0-3.424-3.3,7.249,7.249,0,0,0-2.262-.926,7.922,7.922,0,0,1-1.523-.495c-.05-.038-.177-.119.041-.089a14.443,14.443,0,0,0,2.221-.015,21.427,21.427,0,0,0-2.064-42.74,21.084,21.084,0,0,0-10.594,2.832c-.089.051-.112.011-.028-.068a22.97,22.97,0,0,1,15.6-6.092,23.3,23.3,0,0,1,5.863,45.8,9.5,9.5,0,0,1,4,2.386M76.3,609.5a4.461,4.461,0,0,1-.487.172,12.481,12.481,0,0,1-9.138-.616c-3.525-2.16-2.855-7.808-2.855-7.808V572.613c0-5.855-1.942-6.916-4.1-7.33a3.258,3.258,0,0,0-.683-.058c-.163.033-.163-.069-.071-.125a2.342,2.342,0,0,1,.507-.182,12.857,12.857,0,0,1,9.112.611c3.292,1.912,2.876,7.8,2.876,7.8v28.623c0,5.883,1.942,6.932,4.1,7.36a5.241,5.241,0,0,0,.7.041c.147-.033.147.071.048.14m31.214-34.047a9.741,9.741,0,0,1-5.584,8.607h.015a12.2,12.2,0,0,1,9.744,10,15.816,15.816,0,0,1-.386,7.723,10.838,10.838,0,0,1-4.8,6.287,18.144,18.144,0,0,1-8.9,2.175H89.4a9.5,9.5,0,0,1-5.838-1.388c-2.569-1.845-2.556-5.685-2.538-8.226V573.446c.162-6.95-2.348-7.569-3.848-7.939l-.051-.013a4.925,4.925,0,0,0-.84-.081l-.073.005c-.041,0-.087-.008-.1-.036s0-.051.041-.091a10.046,10.046,0,0,1,2.792-.65,30.6,30.6,0,0,1,3.058-.15H95.332c2.03,0,12.183.528,12.183,10.96" transform="translate(753 216)" fill="#1275b0"/>
  </g>
</svg>
